HIERARCHY
ROOT Hips
{
  OFFSET 57.8838 95.319 338.509
  CHANNELS 6 Xposition Yposition Zposition Zrotation Xrotation Yrotation
  JOINT LeftUpLeg
  {
    OFFSET 8.64259 1.95398 -2.38835
    CHANNELS 3 Zrotation Xrotation Yrotation
    JOINT LeftLeg
    {
      OFFSET 43.7702 0 0
      CHANNELS 3 Zrotation Xrotation Yrotation
      JOINT LeftFoot
      {
        OFFSET 40.6238 0 0
        CHANNELS 3 Zrotation Xrotation Yrotation
        JOINT LeftToeBase
        {
          OFFSET 12.7242 0 0
          CHANNELS 3 Zrotation Xrotation Yrotation
          End Site
          {
            OFFSET 0 0 0
          }
        }
      }
    }
  }
  JOINT RightUpLeg
  {
    OFFSET -8.2249 1.95398 -2.59336
    CHANNELS 3 Zrotation Xrotation Yrotation
    JOINT RightLeg
    {
      OFFSET 43.5653 0 0
      CHANNELS 3 Zrotation Xrotation Yrotation
      JOINT RightFoot
      {
        OFFSET 40.6238 0 0
        CHANNELS 3 Zrotation Xrotation Yrotation
        JOINT RightToeBase
        {
          OFFSET 12.7242 0 0
          CHANNELS 3 Zrotation Xrotation Yrotation
          End Site
          {
            OFFSET 0 0 0
          }
        }
      }
    }
  }
  JOINT Spine
  {
    OFFSET 0.165834 0.87714 6.61349
    CHANNELS 3 Zrotation Xrotation Yrotation
    JOINT Spine1
    {
      OFFSET 7.38963 1.71661e-005 0
      CHANNELS 3 Zrotation Xrotation Yrotation
      JOINT Spine2
      {
        OFFSET 11.9445 1.14441e-005 0
        CHANNELS 3 Zrotation Xrotation Yrotation
        JOINT Spine3
        {
          OFFSET 14.7254 4.19617e-005 0
          CHANNELS 3 Zrotation Xrotation Yrotation
          JOINT Spine4
          {
            OFFSET 10.9679 0 0
            CHANNELS 3 Zrotation Xrotation Yrotation
            JOINT RightShoulder
            {
              OFFSET 2.46616 -1.6653 3.69651
              CHANNELS 3 Zrotation Xrotation Yrotation
              JOINT RightArm
              {
                OFFSET 13.0012 0 0
                CHANNELS 3 Zrotation Xrotation Yrotation
                JOINT RightForeArm
                {
                  OFFSET 28.7848 1.62311e-005 0
                  CHANNELS 3 Zrotation Xrotation Yrotation
                  JOINT RightHand
                  {
                    OFFSET 26.5688 1.62095e-005 0
                    CHANNELS 3 Zrotation Xrotation Yrotation
                    End Site
                    {
                      OFFSET 0 0 0
                    }
                  }
                }
              }
            }
            JOINT LeftShoulder
            {
              OFFSET 2.38034 -1.29275 -3.7523
              CHANNELS 3 Zrotation Xrotation Yrotation
              JOINT LeftArm
              {
                OFFSET 16.3182 6.07031e-005 0
                CHANNELS 3 Zrotation Xrotation Yrotation
                JOINT LeftForeArm
                {
                  OFFSET 27.0901 0 0
                  CHANNELS 3 Zrotation Xrotation Yrotation
                  JOINT LeftHand
                  {
                    OFFSET 24.5451 1.51738e-005 0
                    CHANNELS 3 Zrotation Xrotation Yrotation
                    End Site
                    {
                      OFFSET 0 0 0
                    }
                  }
                }
              }
            }
            JOINT Neck
            {
              OFFSET 5.0226 -0.0266342 0
              CHANNELS 3 Zrotation Xrotation Yrotation
              JOINT Head
              {
                OFFSET 6.69364 2.86102e-005 0
                CHANNELS 3 Zrotation Xrotation Yrotation
                End Site
                {
                  OFFSET 0 0 0
                }
              }
            }
          }
        }
      }
    }
  }
}
MOTION
Frames:	19
Frame Time:	0.0416667
266.313 89.4654 260.228 -97.7652 60.3914 -81.3681 177.96 -21.3084 39.3694 119.012 20.8205 112.073 37.3449 -21.4372 33.9851 -116.962 73.0376 -64.9401 132.906 3.32896 70.7597 18.2963 -12.8623 56.3401 30.1839 27.4113 46.5102 16.6056 -29.283 -126.67 4.46799 6.0078 -88.6533 14.8549 9.50891 1.31326 3.2188 9.55743 0.889645 -19.5553 8.67156 4.13072 0.457342 8.67155 4.13071 137.053 -23.5126 -10.5291 65.4785 -52.2837 35.7269 -7.31451 17.3082 -90.1545 17.3616 13.296 84.5349 -52.7039 -55.1396 132.509 20.457 35.7736 -47.7094 22.6039 6.26917 -76.5214 4.64119 1.7028 24.2738 -76.8791 -2.07744 -29.2948 51.137 -17.5681 6.53482 
267.195 89.0807 261.173 -97.4538 60.479 -81.9188 175.407 -24.5162 36.3622 113.806 15.6301 110.151 48.569 -24.7746 45.0164 -126.601 67.814 -56.4962 132.404 4.21706 71.4593 15.0047 -10.7838 55.4336 28.3695 29.1401 48.3808 14.1288 -33.4259 -127.456 4.46565 6.00908 -88.6199 14.8492 9.5209 1.37935 3.21318 9.57229 0.95512 -19.5601 8.66317 4.1972 0.452587 8.66317 4.19719 137.069 -23.5467 -10.5354 64.74 -52.6364 34.2379 -65.1856 -8.41841 -87.986 11.6977 38.9153 15.6273 -52.5827 -55.3 132.615 22.3702 35.8461 -47.5075 22.2636 5.16806 -77.3367 5.11328 1.72291 22.8215 -77.1272 -2.40637 -29.2969 51.4637 -17.8707 6.70191 
269.846 87.8862 264.007 -96.5112 60.7352 -83.5978 165.88 -32.9473 27.5886 -112.195 2.4587 78.4587 78.3758 54.7301 -69.7625 -142.451 49.1529 -45.3678 130.701 6.56745 73.8476 8.00351 -6.04722 53.7904 23.92 33.2421 51.3814 5.26238 -46.6632 -130.238 4.45807 6.01452 -88.5178 14.8287 9.55659 1.58201 3.19274 9.61687 1.15599 -19.5776 8.63643 4.40076 0.435012 8.63644 4.40076 137.124 -23.6639 -10.5559 62.4286 -53.5962 29.7118 16.52 11.4135 -96.1186 170.804 56.7273 5.25806 -52.2125 -55.787 132.939 28.487 36.2562 -46.5515 20.8883 1.17349 -80.298 6.55549 1.77231 19.1524 -77.9872 -3.59032 -29.3073 52.5758 -18.9462 7.301 
273.929 85.8799 268.334 -95.0319 61.1115 -86.2624 152.957 -38.3361 17.8069 -113.171 0.777877 90.524 79.5484 40.1703 -48.4114 -155.604 20.7397 -42.3941 127.535 9.56394 78.1455 2.29113 -1.87704 52.7781 20.1254 36.7707 51.316 -12.4964 -64.3628 -138.738 4.44487 6.02702 -88.3549 14.7879 9.61111 1.90633 3.15206 9.6856 1.47761 -19.6131 8.59123 4.72569 0.399581 8.59121 4.72568 137.23 -23.8789 -10.5848 58.6708 -54.7954 22.6444 50.1988 25.9153 -96.1915 148.109 55.2429 11.5794 -51.62 -56.5554 133.452 38.6893 37.7463 -43.7161 17.8882 -6.67805 -86.1144 8.78099 1.82168 15.0281 -79.6429 -5.9691 -29.3567 54.6761 -21.0845 8.48161 
279.089 82.9146 273.71 -93.086 61.5601 -89.8149 146.04 -36.2862 12.2296 -25.13 2.95517 84.0094 129.874 12.8314 -141.464 -167.596 -1.84389 -45.015 122.759 12.4469 84.5513 -0.80918 0.497551 52.1279 18.6225 37.5508 47.8106 -55.2419 -77.8333 -172.167 4.42521 6.0498 -88.1369 14.7205 9.68003 2.3428 3.08463 9.77366 1.91064 -19.6722 8.5262 5.16145 0.34048 8.5262 5.16144 137.4 -24.2091 -10.6168 53.7045 -55.8717 13.6376 -16.7596 10.8259 -62.581 159.999 -12.2852 -7.37325 -50.8186 -57.5736 134.141 51.6132 41.6242 -36.7181 12.3212 -17.8555 -98.313 11.5525 1.85569 11.4662 -82.2982 -9.89048 -29.5494 57.9915 -24.6237 10.3446 
284.869 78.9366 279.583 -90.7426 62.0331 -94.1584 138.871 -33.05 7.17582 -30.0745 7.97992 76.8289 130.772 27.1642 -143.42 -177.38 -9.76701 -47.6445 116.896 14.3617 93.0489 -2.82046 2.23401 50.9489 17.6451 33.7108 45.0476 -122.232 -77.5505 128.128 4.39802 6.08552 -87.8687 14.6209 9.75842 2.88225 2.98465 9.8757 2.44616 -19.7599 8.43947 5.69772 0.252775 8.43949 5.69771 137.646 -24.6709 -10.6475 48.0007 -56.592 3.54857 -71.9373 -30.2636 -67.1697 94.6977 -66.0364 -66.7543 -49.8163 -58.8134 134.992 61.4724 48.3816 -22.1821 3.53072 -29.0469 -118.576 14.5992 1.86821 8.70405 -86.0926 -15.5117 -30.1025 62.5413 -29.8281 12.8812 
290.805 74.3155 285.427 -88.0775 62.4894 -99.1774 132.4 -28.4814 5.08329 -27.8959 15.0686 64.1196 130.077 38.2034 -148.814 174.828 -6.97737 -47.5246 111.131 15.1396 103.362 -41.6429 30.7576 59.585 19.9453 -14.19 55.2581 -145.447 -72.1767 109.171 4.36232 6.13599 -87.5567 14.4856 9.84085 3.51347 2.84867 9.9858 3.07327 -19.8787 8.32938 6.32211 0.133914 8.32939 6.32211 137.979 -25.2793 -10.6726 42.1245 -56.9633 -6.67928 -90.1118 -45.8529 -79.2532 49.0396 -49.7904 -95.5754 -48.6192 -60.2487 135.995 60.8654 53.9828 0.919082 -5.88035 -33.9031 -143.114 17.6103 1.86889 6.72097 -91.1123 -22.6728 -31.3545 67.9993 -36.8201 16.062 
296.893 69.4567 291.202 -85.1762 62.8968 -104.72 127.43 -22.7155 9.99742 -20.287 27.0483 39.2672 129.449 53.9248 -158.533 166.47 0.815714 -44.8089 100.386 14.2158 117.552 103.663 -48.138 108.549 146.486 59.375 -103.871 -147.94 -69.3003 107.309 4.31764 6.20114 -87.2096 14.3155 9.92158 4.21958 2.67731 10.0975 3.77537 -20.0275 8.19552 7.01671 -0.014854 8.19553 7.01671 138.405 -26.0452 -10.6883 36.4149 -57.2537 -16.3871 -74.2148 -53.8575 -68.6591 43.8216 -33.2676 -77.408 -47.2301 -61.8563 137.142 54.0474 54.4966 24.521 -11.0948 -33.3065 -162.7 20.408 1.89585 5.4667 -97.4049 -30.7761 -33.718 73.8877 -45.3837 20.0303 
304.365 63.6386 297.92 -82.1403 63.236 -110.582 123.748 -16.2975 19.5995 -1.22071 36.4907 2.04502 136.216 71.5661 -177.418 155.771 9.88381 -39.84 92.4346 4.95272 137.411 111.492 -69.6422 119.595 59.122 66.8177 -31.8163 -138.079 -68.766 113.958 4.26429 6.27901 -86.84 14.1154 9.99484 4.97523 2.47534 10.2038 4.5274 -20.2013 8.04014 7.75566 -0.188648 8.04012 7.75565 138.932 -26.9753 -10.6917 30.7328 -57.989 -25.45 -39.5906 -52.3832 -40.1442 31.2043 -17.5613 -62.1659 -45.6473 -63.6161 138.429 48.1618 52.418 42.1861 13.2178 -24.0901 -135.061 22.9803 1.93339 4.76017 -107.196 -41.268 -38.7417 81.2512 -52.5765 29.9371 
311.929 58.8468 304.583 -79.0908 63.5059 -116.504 121.743 -9.53988 14.6315 -2.43359 37.3083 4.01122 135.261 75.907 -176.856 143.032 17.5578 -33.0405 92.1468 -10.2805 152.803 0.551167 -5.26712 -1.34562 19.5895 -24.0288 68.2923 -120.878 -68.2748 125.578 4.20414 6.36652 -86.4647 13.8935 10.0555 5.74605 2.25101 10.2983 5.29524 -20.3927 7.86865 8.50478 -0.37999 7.86864 8.50476 139.56 -28.0725 -10.6802 24.052 -60.1975 -34.6041 -16.7494 -42.9255 -19.751 13.7442 -7.06672 -57.805 -43.8644 -65.5097 139.856 42.6106 50.3269 55.2956 9.48169 33.1739 13.1073 25.3363 1.96098 4.39918 -69.2848 9.58207 -34.9279 22.1111 -42.1074 -80.8782 
319.538 55 311.206 -76.1555 63.7245 -122.192 120.685 -3.00716 11.9126 -2.20927 38.7154 3.52682 129.967 80.3917 -172.508 130.241 22.5117 -25.6372 89.6489 -21.6196 156.277 -0.0357967 -25.2932 0.080863 19.8871 -31.3243 65.9195 -106.239 -66.7697 135.077 4.14037 6.45979 -86.1037 13.6603 10.1002 6.49115 2.01489 10.3755 6.03821 -20.5928 7.68999 9.22432 -0.580189 7.68998 9.22432 140.292 -29.3369 -10.6516 10.7412 -67.064 -48.8908 -8.52601 -28.9551 -8.99436 1.44944 -1.06613 -60.2073 -41.8678 -67.5201 141.434 35.8587 48.4373 67.1029 9.64822 37.9653 0.01829 27.4828 2.20118 4.14642 -0.591557 47.6921 -77.1672 42.8338 28.7386 -83.3651 
326.987 51.8772 317.639 -73.4429 63.9226 -127.374 120.296 2.94864 9.99799 -2.05843 40.5075 3.16192 111.004 84.1074 -154.38 119.231 25.0807 -18.9678 89.447 -31.3085 158.833 -179.983 13.52 179.967 153.602 69.7237 -107.204 -97.2457 -65.1176 140.447 4.07709 6.55483 -85.7766 13.4265 10.1279 7.17005 1.77794 10.4329 6.71579 -20.7936 7.5152 9.87571 -0.780962 7.51521 9.87572 141.128 -30.7693 -10.6037 -111.252 -65.0937 -164.258 -21.0396 16.9847 -0.0116939 -1.56758 0.518599 -63.849 -39.6287 -69.6324 143.187 27.9023 46.1684 78.0851 4.72443 43.1936 0.00969051 29.4192 2.4011 4.0515 -0.647657 47.2889 -77.7798 42.8984 28.7144 -83.937 
334.063 49.3439 323.728 -71.0285 64.1345 -131.834 120.327 8.09116 8.60735 -1.98094 42.7177 2.9112 62.6722 85.3795 -106.788 110.598 26.1871 -13.5766 90.227 -38.4549 160.489 -179.98 22.8833 179.964 153.627 74.7651 -108.577 -91.7631 -63.7637 143.441 4.01845 6.64848 -85.4997 13.2012 10.1394 7.74873 1.54959 10.4697 7.29397 -20.9884 7.35496 10.4271 -0.975759 7.35499 10.4271 142.074 -32.3751 -10.5338 -114.309 -58.1505 -165.172 -18.2387 26.3291 -0.0102895 -7.28005 3.93655 -66.6239 -37.0888 -71.8344 145.172 19.7049 43.0927 87.7976 -0.189641 49.2214 -0.000397159 31.1489 2.58647 4.07922 2.04182 46.9631 -80.0712 42.5106 31.0863 -83.3682 
340.553 47.321 329.31 -68.9631 64.3849 -135.417 120.605 12.2497 7.59648 -1.97145 45.3471 2.76094 25.1658 82.8829 -69.9572 104.103 26.575 -9.38703 91.5125 -43.3136 161.661 -179.998 29.3184 179.959 155.236 78.3149 -111.161 -88.0677 -62.7108 145.328 3.96753 6.73835 -85.2854 12.9916 10.1355 8.20182 1.33726 10.4855 7.74729 -21.1726 7.21743 10.8549 -1.15991 7.21742 10.8549 143.141 -34.171 -10.4384 -130.788 -35.2934 -174.308 -22.8916 54.5938 -0.0154252 -9.79319 5.62932 -67.6992 -34.1338 -74.1163 147.502 12.3666 39.2581 95.5544 -4.77372 55.5204 -0.0126682 32.6706 2.7627 4.21411 3.81641 46.4175 -81.4631 41.4878 33.0629 -82.8983 
346.231 45.7616 334.202 -67.2848 64.6769 -138.022 120.997 15.285 6.8956 -2.03343 48.2899 2.71244 11.53 79.1599 -56.9611 99.2517 26.6863 -6.09665 93.0204 -46.3569 162.586 -179.976 33.8494 179.954 159.124 80.3822 -115.713 -85.3143 -61.889 146.688 3.92532 6.82274 -85.1412 12.8023 10.1152 8.51373 1.14589 10.4788 8.06016 -21.3431 7.106 11.144 -1.33041 7.10599 11.144 144.355 -36.1948 -10.3113 -133.583 -29.6789 -173.02 -21.3654 61.507 -0.0197915 -13.4752 8.17124 -69.5922 -30.5332 -76.4717 150.406 6.61254 35.092 100.997 -8.66776 61.5383 -0.0272152 33.9781 2.93339 4.44287 5.05406 45.7104 -82.2645 40.0299 34.6884 -82.4982 
350.873 44.649 338.218 -66.0275 64.9915 -139.594 121.392 17.0798 6.48875 -2.16056 51.3025 2.75639 5.86047 75.6837 -51.9282 95.6072 26.7544 -3.39054 94.4662 -47.9662 163.319 179.933 36.9861 179.948 164.939 81.1301 -121.992 -83.1227 -61.2473 147.771 3.88982 6.9011 -85.0702 12.6353 10.0736 8.67887 0.977464 10.4444 8.2272 -21.4988 7.01763 11.2877 -1.48618 7.01762 11.2877 145.762 -38.5174 -10.1419 -135.043 -28.3643 -171.295 -19.6343 63.7137 -0.0235776 -16.6556 10.5851 -71.5937 -25.7908 -78.8956 154.381 2.69722 31.1298 104.183 -11.6188 66.7636 -0.0441296 35.0624 3.10051 4.75206 5.98924 44.8644 -82.6428 38.2533 35.9849 -82.1717 
354.268 43.9902 341.176 -65.23 65.293 -140.106 121.707 17.5288 6.3805 -2.09716 50.902 2.69005 -5.66829 75.1019 -38.7227 92.8644 26.9387 -0.963539 95.9837 -48.3976 164.11 -179.959 39.0782 179.944 170.398 80.5682 -127.6 -81.298 -60.7536 148.7 3.85609 6.97394 -85.0724 12.4899 10.0012 8.69833 0.831354 10.373 8.24991 -21.6404 6.94281 11.2843 -1.62778 6.94283 11.2843 147.441 -41.2522 -9.91225 -136.037 -29.6973 -169.472 -17.9611 63.4818 -0.0260755 -19.3827 12.8602 -73.591 -18.73 -81.3701 160.6 0.607801 27.7953 105.367 -13.5312 70.7798 -0.0593758 35.9128 3.26549 5.1304 6.76982 43.8929 -82.6688 36.2277 36.9559 -81.9479 
356.215 43.8124 342.906 -64.9418 65.5298 -139.535 121.891 16.5227 6.57573 -177.948 49.7772 177.302 -0.0979421 -1.06233 -90.0111 90.8252 27.4569 1.61452 97.3424 -47.5906 164.893 -179.955 40.196 179.942 174.097 78.8125 -131.281 -79.7065 -60.3849 149.56 3.81577 7.04254 -85.1464 12.3635 9.88233 8.57721 0.704762 10.2489 8.13411 -21.7696 6.86511 11.1338 -1.757 6.86511 11.1338 149.514 -44.5727 -9.59116 -136.868 -33.217 -167.563 -16.4483 61.6255 -0.0268277 -21.739 15.0325 -75.6089 -6.16233 -83.8019 172.25 0.286879 25.3274 104.765 -14.4172 73.2775 -0.0719624 36.5131 3.42834 5.57378 7.50004 42.8143 -82.3516 33.9957 37.5935 -81.8823 
356.548 44.1449 343.262 -65.2283 65.6351 -137.855 121.933 13.9277 7.08253 178.676 -35.1783 177.714 14.9198 -80.5749 -32.0378 89.2506 28.6985 5.40882 98.5579 -45.2075 165.721 179.928 40.312 179.943 175.869 75.7258 -132.882 -78.2272 -60.1224 150.427 3.75653 7.1083 -85.2884 12.2529 9.69433 8.32583 0.594314 10.0502 7.89115 -21.888 6.75989 10.8391 -1.8753 6.75989 10.8391 152.181 -48.7347 -9.11228 -137.647 -39.0448 -165.438 -15.172 58.3531 -0.0256695 -23.8108 17.1665 -77.7297 20.8044 -85.7516 -161.769 1.73693 23.8152 102.404 -14.3446 74.0547 -0.0767052 36.8334 3.58842 6.08976 8.26382 41.658 -81.6672 31.5776 37.8861 -82.0678 
